<svg width="298" height="43" viewBox="0 0 298 43" fill="none" xmlns="http://www.w3.org/2000/svg">
<path d="M0.291992 28.8008L2.85547 24.6582C3.79883 25.3965 4.70801 26.0117 5.58301 26.5039C6.45801 26.9824 7.33984 27.3379 8.22852 27.5703C9.11719 27.8027 10.0195 27.9189 10.9355 27.9189C12.1113 27.9189 13.1299 27.7412 13.9912 27.3857C14.8662 27.0166 15.543 26.5107 16.0215 25.8682C16.5 25.2256 16.7393 24.4736 16.7393 23.6123C16.7393 22.6416 16.4453 21.835 15.8574 21.1924C15.2832 20.5361 14.5244 19.9756 13.5811 19.5107C12.6377 19.0322 11.626 18.5674 10.5459 18.1162C9.56152 17.7061 8.56348 17.2617 7.55176 16.7832C6.55371 16.3047 5.64453 15.7373 4.82422 15.0811C4.00391 14.4111 3.34082 13.6045 2.83496 12.6611C2.34277 11.7178 2.09668 10.5762 2.09668 9.23633C2.09668 7.5 2.53418 5.98926 3.40918 4.7041C4.28418 3.40527 5.49414 2.40723 7.03906 1.70996C8.58398 0.999023 10.3477 0.643555 12.3301 0.643555C13.7246 0.643555 15.1533 0.828125 16.6162 1.19727C18.0928 1.55273 19.5488 2.09961 20.9844 2.83789L18.8311 7.20605C17.8604 6.63184 16.8281 6.1875 15.7344 5.87305C14.6406 5.54492 13.5947 5.38086 12.5967 5.38086C11.6123 5.38086 10.7441 5.53809 9.99219 5.85254C9.25391 6.15332 8.67285 6.59082 8.24902 7.16504C7.83887 7.72559 7.63379 8.38184 7.63379 9.13379C7.63379 10.0225 7.90723 10.7744 8.4541 11.3896C9.01465 12.0049 9.74609 12.5518 10.6484 13.0303C11.5508 13.4951 12.5146 13.9531 13.54 14.4043C14.5654 14.8555 15.5908 15.3408 16.6162 15.8604C17.6553 16.3662 18.5986 16.9678 19.4463 17.665C20.3076 18.3623 20.9912 19.1963 21.4971 20.167C22.0166 21.1377 22.2764 22.3066 22.2764 23.6738C22.2764 25.4512 21.8115 27.0166 20.8818 28.3701C19.9658 29.71 18.6738 30.7559 17.0059 31.5078C15.3379 32.2461 13.3896 32.6152 11.1611 32.6152C9.16504 32.6152 7.25098 32.2939 5.41895 31.6514C3.58691 31.0088 1.87793 30.0586 0.291992 28.8008ZM31.751 42.2539H26.7061V11.4922H31.1562L31.4023 14.3633C32.3047 13.3379 33.3916 12.5381 34.6631 11.9639C35.9346 11.376 37.3223 11.082 38.8262 11.082C40.7402 11.082 42.4492 11.5469 43.9531 12.4766C45.4707 13.4062 46.6602 14.6777 47.5215 16.291C48.3965 17.8906 48.834 19.709 48.834 21.7461C48.834 23.7832 48.3965 25.6084 47.5215 27.2217C46.6602 28.8213 45.4707 30.0859 43.9531 31.0156C42.4492 31.9453 40.7402 32.4102 38.8262 32.4102C37.418 32.4102 36.1123 32.1572 34.9092 31.6514C33.7061 31.1455 32.6533 30.4346 31.751 29.5186V42.2539ZM37.7393 27.8574C38.8877 27.8574 39.9062 27.5977 40.7949 27.0781C41.6973 26.5449 42.3945 25.8203 42.8867 24.9043C43.3926 23.9746 43.6455 22.915 43.6455 21.7256C43.6455 20.5361 43.3926 19.4834 42.8867 18.5674C42.3809 17.6377 41.6836 16.9131 40.7949 16.3936C39.9062 15.8604 38.8877 15.5938 37.7393 15.5938C36.6592 15.5938 35.6816 15.8398 34.8066 16.332C33.9316 16.8105 33.2275 17.4736 32.6943 18.3213C32.1611 19.1553 31.8467 20.1123 31.751 21.1924V22.3203C31.8467 23.4004 32.1543 24.3574 32.6738 25.1914C33.207 26.0254 33.9111 26.6816 34.7861 27.1602C35.6611 27.625 36.6455 27.8574 37.7393 27.8574ZM71.5156 29.6211C68.959 31.4805 66.1631 32.4102 63.1279 32.4102C60.9268 32.4102 58.9512 31.9316 57.2012 30.9746C55.4512 30.0176 54.0635 28.7119 53.0381 27.0576C52.0264 25.3896 51.5205 23.5166 51.5205 21.4385C51.5205 19.4561 51.9785 17.6855 52.8945 16.127C53.8242 14.5684 55.0889 13.3379 56.6885 12.4355C58.3018 11.5332 60.1201 11.082 62.1436 11.082C64.249 11.082 66.0947 11.5811 67.6807 12.5791C69.2803 13.5635 70.5244 14.9375 71.4131 16.7012C72.3018 18.4512 72.7461 20.4883 72.7461 22.8125V23.4688H56.9551C57.2012 24.3984 57.6318 25.2188 58.2471 25.9297C58.876 26.6406 59.6553 27.1943 60.585 27.5908C61.5146 27.9873 62.5605 28.1855 63.7227 28.1855C65.9102 28.1855 67.9336 27.4746 69.793 26.0527L71.5156 29.6211ZM56.75 20.5156H68.0703C67.9609 19.4902 67.6465 18.5947 67.127 17.8291C66.6211 17.0635 65.958 16.4688 65.1377 16.0449C64.3311 15.6074 63.4219 15.3887 62.4102 15.3887C61.3848 15.3887 60.4688 15.6074 59.6621 16.0449C58.8555 16.4824 58.1992 17.0908 57.6934 17.8701C57.1875 18.6357 56.873 19.5176 56.75 20.5156ZM94.6279 28.8418C93.6299 29.9766 92.4199 30.8584 90.998 31.4873C89.5762 32.1025 88.0244 32.4102 86.3428 32.4102C84.2646 32.4102 82.3984 31.9453 80.7441 31.0156C79.1035 30.0859 77.8047 28.8213 76.8477 27.2217C75.9043 25.6084 75.4326 23.7832 75.4326 21.7461C75.4326 19.709 75.9043 17.8906 76.8477 16.291C77.8047 14.6777 79.1035 13.4062 80.7441 12.4766C82.3984 11.5469 84.2646 11.082 86.3428 11.082C88.0107 11.082 89.5488 11.3896 90.957 12.0049C92.3789 12.6201 93.5889 13.4883 94.5869 14.6094L91.6338 17.7471C91.0186 17.0771 90.2734 16.5576 89.3984 16.1885C88.5371 15.8193 87.6211 15.6348 86.6504 15.6348C85.4746 15.6348 84.4287 15.8945 83.5127 16.4141C82.6104 16.9336 81.8994 17.6514 81.3799 18.5674C80.874 19.4834 80.6211 20.5361 80.6211 21.7256C80.6211 22.915 80.874 23.9746 81.3799 24.9043C81.8994 25.8203 82.6104 26.5449 83.5127 27.0781C84.4287 27.5977 85.4746 27.8574 86.6504 27.8574C87.6211 27.8574 88.5439 27.6729 89.4189 27.3037C90.2939 26.9209 91.0322 26.4014 91.6338 25.7451L94.6279 28.8418ZM111.916 31.4668C110.412 32.0957 108.956 32.4102 107.548 32.4102C106.112 32.4102 104.848 32.1025 103.754 31.4873C102.674 30.8721 101.826 30.0176 101.211 28.9238C100.609 27.8164 100.309 26.5312 100.309 25.0684V16.0039H96.7197V11.4922H100.575V6.36523H105.354V11.4922H111.198V16.0039H105.354V24.1455C105.354 25.3076 105.668 26.2236 106.297 26.8936C106.939 27.5635 107.739 27.8984 108.696 27.8984C109.544 27.8984 110.385 27.6387 111.219 27.1191L111.916 31.4668ZM120.14 32H115.095V11.4922H119.483L119.668 15.2246C120.379 13.9121 121.336 12.8936 122.539 12.1689C123.756 11.4443 125.15 11.082 126.723 11.082C127.133 11.082 127.55 11.1094 127.974 11.1641C128.411 11.2188 128.842 11.3008 129.266 11.4102L128.65 15.9629C127.803 15.7168 126.982 15.5938 126.189 15.5938C124.986 15.5938 123.927 15.874 123.011 16.4346C122.108 16.9951 121.404 17.7744 120.898 18.7725C120.393 19.7568 120.14 20.9053 120.14 22.2178V32ZM151.865 32H147.702L147.538 28.6982C146.8 29.9014 145.829 30.8242 144.626 31.4668C143.423 32.0957 142.001 32.4102 140.36 32.4102C137.722 32.4102 135.637 31.6035 134.105 29.9902C132.588 28.3633 131.829 26.1279 131.829 23.2842V11.4922H136.874V22.3203C136.874 24.0293 137.305 25.3828 138.166 26.3809C139.041 27.3652 140.224 27.8574 141.714 27.8574C143.259 27.8574 144.496 27.3311 145.426 26.2783C146.355 25.2256 146.82 23.8242 146.82 22.0742V11.4922H151.865V32ZM190.42 32H185.375V21.4795C185.375 19.6201 184.985 18.1777 184.206 17.1523C183.44 16.1133 182.354 15.5938 180.945 15.5938C179.523 15.5938 178.409 16.1133 177.603 17.1523C176.81 18.1914 176.413 19.6338 176.413 21.4795V32H171.368V21.4795C171.368 19.6201 170.979 18.1777 170.199 17.1523C169.42 16.1133 168.333 15.5938 166.938 15.5938C165.503 15.5938 164.382 16.1133 163.575 17.1523C162.782 18.1914 162.386 19.6338 162.386 21.4795V32H157.341V11.4922H161.381L161.565 14.9785C162.263 13.707 163.186 12.7432 164.334 12.0869C165.496 11.417 166.863 11.082 168.436 11.082C170.062 11.082 171.464 11.4375 172.64 12.1484C173.829 12.8457 174.738 13.8506 175.367 15.1631C176.051 13.8232 176.987 12.8115 178.177 12.1279C179.366 11.4307 180.768 11.082 182.381 11.082C184.91 11.082 186.879 11.8887 188.287 13.502C189.709 15.1016 190.42 17.3301 190.42 20.1875V32ZM203.812 28.8008L206.375 24.6582C207.318 25.3965 208.228 26.0117 209.103 26.5039C209.978 26.9824 210.859 27.3379 211.748 27.5703C212.637 27.8027 213.539 27.9189 214.455 27.9189C215.631 27.9189 216.649 27.7412 217.511 27.3857C218.386 27.0166 219.062 26.5107 219.541 25.8682C220.02 25.2256 220.259 24.4736 220.259 23.6123C220.259 22.6416 219.965 21.835 219.377 21.1924C218.803 20.5361 218.044 19.9756 217.101 19.5107C216.157 19.0322 215.146 18.5674 214.065 18.1162C213.081 17.7061 212.083 17.2617 211.071 16.7832C210.073 16.3047 209.164 15.7373 208.344 15.0811C207.523 14.4111 206.86 13.6045 206.354 12.6611C205.862 11.7178 205.616 10.5762 205.616 9.23633C205.616 7.5 206.054 5.98926 206.929 4.7041C207.804 3.40527 209.014 2.40723 210.559 1.70996C212.104 0.999023 213.867 0.643555 215.85 0.643555C217.244 0.643555 218.673 0.828125 220.136 1.19727C221.612 1.55273 223.068 2.09961 224.504 2.83789L222.351 7.20605C221.38 6.63184 220.348 6.1875 219.254 5.87305C218.16 5.54492 217.114 5.38086 216.116 5.38086C215.132 5.38086 214.264 5.53809 213.512 5.85254C212.773 6.15332 212.192 6.59082 211.769 7.16504C211.358 7.72559 211.153 8.38184 211.153 9.13379C211.153 10.0225 211.427 10.7744 211.974 11.3896C212.534 12.0049 213.266 12.5518 214.168 13.0303C215.07 13.4951 216.034 13.9531 217.06 14.4043C218.085 14.8555 219.11 15.3408 220.136 15.8604C221.175 16.3662 222.118 16.9678 222.966 17.665C223.827 18.3623 224.511 19.1963 225.017 20.167C225.536 21.1377 225.796 22.3066 225.796 23.6738C225.796 25.4512 225.331 27.0166 224.401 28.3701C223.485 29.71 222.193 30.7559 220.525 31.5078C218.857 32.2461 216.909 32.6152 214.681 32.6152C212.685 32.6152 210.771 32.2939 208.938 31.6514C207.106 31.0088 205.397 30.0586 203.812 28.8008ZM230.226 32V1.23828H235.271V14.1172C236.774 12.0938 238.982 11.082 241.895 11.082C244.52 11.082 246.57 11.8887 248.047 13.502C249.523 15.1016 250.262 17.3301 250.262 20.1875V32H245.217V21.4795C245.217 19.6201 244.786 18.1777 243.925 17.1523C243.063 16.1133 241.854 15.5938 240.295 15.5938C238.723 15.5938 237.492 16.1201 236.604 17.1729C235.715 18.2119 235.271 19.6475 235.271 21.4795V32H230.226ZM257.891 6.05762C257.18 6.05762 256.578 5.81152 256.086 5.31934C255.607 4.81348 255.368 4.20508 255.368 3.49414C255.368 2.79688 255.607 2.20215 256.086 1.70996C256.578 1.2041 257.18 0.951172 257.891 0.951172C258.615 0.951172 259.224 1.2041 259.716 1.70996C260.208 2.20215 260.454 2.79688 260.454 3.49414C260.454 4.20508 260.208 4.81348 259.716 5.31934C259.224 5.81152 258.615 6.05762 257.891 6.05762ZM260.413 32H255.368V11.4922H260.413V32ZM272.615 32H267.57V16.0039H263.981V11.4922H267.57V7.90332C267.57 6.48145 267.892 5.22363 268.534 4.12988C269.19 3.03613 270.079 2.18164 271.2 1.56641C272.335 0.9375 273.641 0.623047 275.117 0.623047C276.033 0.623047 276.963 0.75293 277.906 1.0127C278.85 1.27246 279.772 1.67578 280.675 2.22266L278.768 6.16016C278.316 5.81836 277.845 5.56543 277.353 5.40137C276.874 5.22363 276.396 5.13477 275.917 5.13477C274.974 5.13477 274.188 5.46973 273.559 6.13965C272.93 6.80957 272.615 7.72559 272.615 8.8877V11.4922H278.809V16.0039H272.615V32ZM297.061 31.4668C295.557 32.0957 294.101 32.4102 292.692 32.4102C291.257 32.4102 289.992 32.1025 288.898 31.4873C287.818 30.8721 286.971 30.0176 286.355 28.9238C285.754 27.8164 285.453 26.5312 285.453 25.0684V16.0039H281.864V11.4922H285.72V6.36523H290.498V11.4922H296.343V16.0039H290.498V24.1455C290.498 25.3076 290.812 26.2236 291.441 26.8936C292.084 27.5635 292.884 27.8984 293.841 27.8984C294.688 27.8984 295.529 27.6387 296.363 27.1191L297.061 31.4668Z" fill="url(#paint0_radial_1_3)"/>
<defs>
<radialGradient id="paint0_radial_1_3" cx="0" cy="0" r="1" gradientUnits="userSpaceOnUse" gradientTransform="translate(322.008 11.9755) rotate(-180) scale(316.716 1367.35)">
<stop stop-color="#F77F00"/>
<stop offset="0.5" stop-color="#D62828"/>
<stop offset="1" stop-color="#003049"/>
</radialGradient>
</defs>
</svg>
